<?xml version="1.0" encoding="UTF-8" standalone="no" ?>
<!DOCTYPE svg PUBLIC "-//W3C//DTD SVG 1.1//EN" "http://www.w3.org/Graphics/SVG/1.1/DTD/svg11.dtd">
<svg xmlns="http://www.w3.org/2000/svg" xmlns:xlink="http://www.w3.org/1999/xlink" version="1.1" width="1080" height="1080" viewBox="0 0 1080 1080" xml:space="preserve">
<desc>Created with Fabric.js 5.2.4</desc>
<defs>
</defs>
<g transform="matrix(1 0 0 1 540 540)" id="abca07ae-b089-4557-b947-af1538c01635"  >
<rect style="stroke: none; stroke-width: 1; stroke-dasharray: none; stroke-linecap: butt; stroke-dashoffset: 0; stroke-linejoin: miter; stroke-miterlimit: 4; fill: rgb(255,255,255); fill-rule: nonzero; opacity: 1; visibility: hidden;" vector-effect="non-scaling-stroke"  x="-540" y="-540" rx="0" ry="0" width="1080" height="1080" />
</g>
<g transform="matrix(1 0 0 1 540 540)" id="b358051c-e5a9-4e13-9be8-34f13c0f1374"  >
</g>
<g transform="matrix(45 0 0 45 540 540)"  >
<path style="stroke: none; stroke-width: 1; stroke-dasharray: none; stroke-linecap: butt; stroke-dashoffset: 0; stroke-linejoin: miter; stroke-miterlimit: 4; fill: rgb(0,0,0); fill-rule: nonzero; opacity: 1;"  transform=" translate(-12, -12)" d="M 5.25 6.375 C 5.25 4.096825406947977 7.096825406947977 2.25 9.375 2.25 C 11.653174593052023 2.25 13.5 4.096825406947977 13.5 6.374999999999999 C 13.5 8.653174593052023 11.653174593052023 10.5 9.375 10.5 C 7.096825406947977 10.5 5.25 8.653174593052023 5.25 6.375 Z M 2.25 19.125 C 2.25 15.189971157455597 5.439971157455597 12 9.375 12 C 13.310028842544403 12 16.5 15.189971157455595 16.5 19.125 L 16.5 19.128 L 16.499 19.247 C 16.494689052299062 19.50553360588399 16.35750936556583 19.7436140539334 16.136 19.877 C 14.095203357134801 21.1059660779748 11.757266835299351 21.75364469140444 9.375 21.75 C 6.9030000000000005 21.75 4.589 21.066 2.615 19.877 C 2.3931069896315544 19.743857827965254 2.2555238843296093 19.505733222634962 2.2510000000000003 19.247 L 2.2500000000000004 19.125 Z M 18.75 7.5 C 18.75 7.085786437626905 18.414213562373096 6.75 18 6.75 C 17.585786437626904 6.75 17.25 7.085786437626905 17.25 7.5 L 17.25 9.75 L 15 9.75 C 14.585786437626904 9.75 14.25 10.085786437626904 14.25 10.5 C 14.25 10.914213562373096 14.585786437626904 11.25 15 11.25 L 17.25 11.25 L 17.25 13.5 C 17.25 13.914213562373096 17.585786437626904 14.25 18 14.25 C 18.414213562373096 14.25 18.75 13.914213562373096 18.75 13.5 L 18.75 11.25 L 21 11.25 C 21.414213562373096 11.25 21.75 10.914213562373096 21.75 10.5 C 21.75 10.085786437626904 21.414213562373096 9.75 21 9.75 L 18.75 9.75 L 18.75 7.5 Z" stroke-linecap="round" />
</g>
</svg>