<?xml version="1.0" encoding="UTF-8" standalone="no" ?>
<!DOCTYPE svg PUBLIC "-//W3C//DTD SVG 1.1//EN" "http://www.w3.org/Graphics/SVG/1.1/DTD/svg11.dtd">
<svg xmlns="http://www.w3.org/2000/svg" xmlns:xlink="http://www.w3.org/1999/xlink" version="1.1" width="1080" height="1080" viewBox="0 0 1080 1080" xml:space="preserve">
<desc>Created with Fabric.js 5.2.4</desc>
<defs>
</defs>
<g transform="matrix(1 0 0 1 540 540)" id="7e1fed7b-be61-4258-9828-2ef98241fe9d"  >
<rect style="stroke: none; stroke-width: 1; stroke-dasharray: none; stroke-linecap: butt; stroke-dashoffset: 0; stroke-linejoin: miter; stroke-miterlimit: 4; fill: rgb(255,255,255); fill-rule: nonzero; opacity: 1; visibility: hidden;" vector-effect="non-scaling-stroke"  x="-540" y="-540" rx="0" ry="0" width="1080" height="1080" />
</g>
<g transform="matrix(1 0 0 1 540 540)" id="d238e234-2450-42c3-8ea0-50ad22b1b1a8"  >
</g>
<g transform="matrix(45 0 0 45 540 540)"  >
<path style="stroke: none; stroke-width: 1; stroke-dasharray: none; stroke-linecap: butt; stroke-dashoffset: 0; stroke-linejoin: miter; stroke-miterlimit: 4; fill: rgb(255,255,255); fill-rule: evenodd; opacity: 1;"  transform=" translate(-12, -12)" d="M 12 2.25 C 6.615 2.25 2.25 6.615 2.25 12 C 2.25 17.384999999999998 6.615 21.75 12 21.75 C 17.384999999999998 21.75 21.75 17.384999999999998 21.75 12 C 21.75 6.615000000000002 17.385 2.25 12 2.25 Z M 7.72 11.47 C 7.427546621942485 11.762817546773958 7.427546621942485 12.237182453226044 7.72 12.530000000000001 L 10.719999999999999 15.530000000000001 C 10.906970580463986 15.73065317761204 11.188555542158952 15.813249181507514 11.45428890863854 15.745385541874256 C 11.720022275118131 15.677521902240999 11.927521902240997 15.470022275118133 11.995385541874255 15.204288908638542 C 12.063249181507512 14.938555542158953 11.980653177612039 14.656970580463987 11.78 14.47 L 10.059999999999999 12.75 L 15.75 12.75 C 16.164213562373096 12.75 16.5 12.414213562373096 16.5 12 C 16.5 11.585786437626904 16.164213562373096 11.25 15.75 11.25 L 10.059999999999999 11.25 L 11.78 9.53 C 12.055358860429122 9.234490245515518 12.047233875917355 8.773990278005257 11.761621798956048 8.48837820104395 C 11.47600972199474 8.202766124082643 11.01550975448448 8.194641139570876 10.719999999999999 8.469999999999999 L 7.719999999999999 11.469999999999999 Z" stroke-linecap="round" />
</g>
</svg>