<?xml version="1.0" encoding="UTF-8" standalone="no" ?>
<!DOCTYPE svg PUBLIC "-//W3C//DTD SVG 1.1//EN" "http://www.w3.org/Graphics/SVG/1.1/DTD/svg11.dtd">
<svg xmlns="http://www.w3.org/2000/svg" xmlns:xlink="http://www.w3.org/1999/xlink" version="1.1" width="1080" height="1080" viewBox="0 0 1080 1080" xml:space="preserve">
<desc>Created with Fabric.js 5.2.4</desc>
<defs>
</defs>
<g transform="matrix(1 0 0 1 540 540)" id="95bd7084-4fe1-4c6d-bdf0-66da6f47008c"  >
<rect style="stroke: none; stroke-width: 1; stroke-dasharray: none; stroke-linecap: butt; stroke-dashoffset: 0; stroke-linejoin: miter; stroke-miterlimit: 4; fill: rgb(255,255,255); fill-rule: nonzero; opacity: 1; visibility: hidden;" vector-effect="non-scaling-stroke"  x="-540" y="-540" rx="0" ry="0" width="1080" height="1080" />
</g>
<g transform="matrix(1 0 0 1 540 540)" id="6285be77-095e-471a-bfc6-3913426dd3a2"  >
</g>
<g transform="matrix(45 0 0 45 540 540)"  >
<path style="stroke: rgb(0,0,0); stroke-width: 1.5; stroke-dasharray: none; stroke-linecap: round; stroke-dashoffset: 0; stroke-linejoin: round; stroke-miterlimit: 4; fill: none; fill-rule: nonzero; opacity: 1;"  transform=" translate(-12, -12)" d="M 14.74 9 L 14.394 18 M 9.606 18 L 9.26 9 M 19.228 5.79 C 19.57 5.842 19.91 5.897 20.25 5.956 M 19.228 5.791 L 18.16 19.673 C 18.0695945673316 20.845313122074636 17.09179380812352 21.750345286457517 15.916 21.75 L 8.084 21.75 C 6.908206191876483 21.750345286457517 5.930405432668403 20.845313122074636 5.84 19.673000000000002 L 4.772 5.79 M 19.228 5.79 C 18.073866790672525 5.615517002530945 16.913765649605892 5.483096026969274 15.749999999999979 5.392999999999987 M 3.7500000000000018 5.955 C 4.090000000000002 5.896 4.4300000000000015 5.841 4.772000000000002 5.79 M 4.772000000000002 5.79 C 5.9261334416164475 5.615518754089387 7.086234518804387 5.483097785819228 8.249999999999982 5.393000000000002 M 15.750000000000002 5.393 L 15.750000000000002 4.476999999999999 C 15.750000000000002 3.2969999999999997 14.840000000000002 2.3129999999999993 13.660000000000002 2.2759999999999994 C 12.553615814532463 2.2406382960230693 11.446384185467505 2.240638296023061 10.339999999999966 2.2759999999999923 C 9.160000000000002 2.3129999999999993 8.250000000000002 3.297999999999999 8.250000000000002 4.476999999999999 L 8.250000000000002 5.393 M 15.750000000000002 5.393 C 13.253721907392256 5.200077544275978 10.74627809260771 5.200077544275976 8.249999999999964 5.393" stroke-linecap="round" />
</g>
</svg>