<?xml version="1.0" encoding="UTF-8" standalone="no" ?>
<!DOCTYPE svg PUBLIC "-//W3C//DTD SVG 1.1//EN" "http://www.w3.org/Graphics/SVG/1.1/DTD/svg11.dtd">
<svg xmlns="http://www.w3.org/2000/svg" xmlns:xlink="http://www.w3.org/1999/xlink" version="1.1" width="1080" height="1080" viewBox="0 0 1080 1080" xml:space="preserve">
<desc>Created with Fabric.js 5.2.4</desc>
<defs>
</defs>
<rect x="0" y="0" width="100%" height="100%" fill="transparent"></rect>
<g transform="matrix(1 0 0 1 540 540)" id="0bafb88c-a366-476b-85ea-88a1d23aabff"  >
<rect style="stroke: none; stroke-width: 1; stroke-dasharray: none; stroke-linecap: butt; stroke-dashoffset: 0; stroke-linejoin: miter; stroke-miterlimit: 4; fill: rgb(255,255,255); fill-rule: nonzero; opacity: 1; visibility: hidden;" vector-effect="non-scaling-stroke"  x="-540" y="-540" rx="0" ry="0" width="1080" height="1080" />
</g>
<g transform="matrix(1 0 0 1 540 540)" id="5a6ac49a-159e-4614-9e65-fd0b308979c3"  >
</g>
<g transform="matrix(NaN NaN NaN NaN 0 0)"  >
<g style=""   >
</g>
</g>
<g transform="matrix(NaN NaN NaN NaN 0 0)"  >
<g style=""   >
</g>
</g>
<g transform="matrix(NaN NaN NaN NaN 0 0)"  >
<g style=""   >
</g>
</g>
<g transform="matrix(NaN NaN NaN NaN 0 0)"  >
<g style=""   >
</g>
</g>
<g transform="matrix(NaN NaN NaN NaN 0 0)"  >
<g style=""   >
</g>
</g>
<g transform="matrix(45 0 0 45 540 540)"  >
<g style=""   >
		<g transform="matrix(1 0 0 1 0 0)"  >
<path style="stroke: none; stroke-width: 1; stroke-dasharray: none; stroke-linecap: butt; stroke-dashoffset: 0; stroke-linejoin: miter; stroke-miterlimit: 4; fill: rgb(0,0,0); fill-rule: nonzero; opacity: 1;" vector-effect="non-scaling-stroke"  transform=" translate(-12, -12)" d="M 12 15 C 13.65685424949238 15 15 13.65685424949238 15 12 C 15 10.34314575050762 13.65685424949238 9 12 9 C 10.34314575050762 9 9 10.34314575050762 9 12 C 9 13.65685424949238 10.34314575050762 15 12 15 Z" stroke-linecap="round" />
</g>
		<g transform="matrix(1 0 0 1 0 0)"  >
<path style="stroke: none; stroke-width: 1; stroke-dasharray: none; stroke-linecap: butt; stroke-dashoffset: 0; stroke-linejoin: miter; stroke-miterlimit: 4; fill: rgb(0,0,0); fill-rule: evenodd; opacity: 1;" vector-effect="non-scaling-stroke"  transform=" translate(-12, -12)" d="M 1.323 11.447 C 2.811 6.976 7.028 3.75 12.001 3.75 C 16.971 3.75 21.186 6.973 22.676000000000002 11.440000000000001 C 22.796000000000003 11.802000000000001 22.796000000000003 12.192000000000002 22.676000000000002 12.553 C 21.189 17.024 16.971000000000004 20.25 11.999000000000002 20.25 C 7.029000000000003 20.25 2.8130000000000024 17.027 1.3240000000000016 12.559999999999999 C 1.2037478924435827 12.198744318983666 1.203747892443583 11.808255681016334 1.3240000000000018 11.447 Z M 17.25 12 C 17.25 14.899494936611665 14.899494936611665 17.25 12 17.25 C 9.100505063388335 17.25 6.75 14.899494936611665 6.75 12 C 6.75 9.100505063388335 9.100505063388335 6.75 12 6.75 C 14.899494936611665 6.75 17.25 9.100505063388333 17.25 11.999999999999998 Z" stroke-linecap="round" />
</g>
</g>
</g>
</svg>