<?xml version="1.0" encoding="UTF-8" standalone="no" ?>
<!DOCTYPE svg PUBLIC "-//W3C//DTD SVG 1.1//EN" "http://www.w3.org/Graphics/SVG/1.1/DTD/svg11.dtd">
<svg xmlns="http://www.w3.org/2000/svg" xmlns:xlink="http://www.w3.org/1999/xlink" version="1.1" width="1080" height="1080" viewBox="0 0 1080 1080" xml:space="preserve">
<desc>Created with Fabric.js 5.2.4</desc>
<defs>
</defs>
<rect x="0" y="0" width="100%" height="100%" fill="transparent"></rect>
<g transform="matrix(1 0 0 1 540 540)" id="2357d2ff-663d-43a6-933a-c0907d60e954"  >
<rect style="stroke: none; stroke-width: 1; stroke-dasharray: none; stroke-linecap: butt; stroke-dashoffset: 0; stroke-linejoin: miter; stroke-miterlimit: 4; fill: rgb(255,255,255); fill-rule: nonzero; opacity: 1; visibility: hidden;" vector-effect="non-scaling-stroke"  x="-540" y="-540" rx="0" ry="0" width="1080" height="1080" />
</g>
<g transform="matrix(1 0 0 1 540 540)" id="774346bb-7f18-4ee0-a454-88ac46583ced"  >
</g>
<g transform="matrix(45 0 0 45 540 540)"  >
<path style="stroke: none; stroke-width: 1; stroke-dasharray: none; stroke-linecap: butt; stroke-dashoffset: 0; stroke-linejoin: miter; stroke-miterlimit: 4; fill: rgb(0,0,0); fill-rule: evenodd; opacity: 1;"  transform=" translate(-10.5, -12)" d="M 16.5 3.75 C 17.32842712474619 3.75 18 4.421572875253809 18 5.25 L 18 18.75 C 18 19.57842712474619 17.32842712474619 20.25 16.5 20.25 L 10.5 20.25 C 9.67157287525381 20.25 9 19.57842712474619 9 18.75 L 9 15 C 9 14.585786437626904 8.664213562373096 14.25 8.25 14.25 C 7.835786437626905 14.25 7.5 14.585786437626904 7.5 15 L 7.5 18.75 C 7.5 20.40685424949238 8.84314575050762 21.75 10.5 21.75 L 16.5 21.75 C 18.15685424949238 21.75 19.5 20.40685424949238 19.5 18.75 L 19.5 5.25 C 19.5 3.5931457505076194 18.15685424949238 2.25 16.5 2.25 L 10.5 2.25 C 8.84314575050762 2.25 7.5 3.5931457505076194 7.5 5.25 L 7.5 9 C 7.5 9.414213562373096 7.835786437626905 9.75 8.25 9.75 C 8.664213562373096 9.75 9 9.414213562373096 9 9 L 9 5.25 C 9 4.42157287525381 9.67157287525381 3.75 10.5 3.75 L 16.5 3.75 Z M 5.78 8.47 C 5.487182453226043 8.177546621942486 5.012817546773958 8.177546621942486 4.720000000000001 8.47 L 1.7200000000000006 11.47 C 1.4275466219424857 11.762817546773958 1.4275466219424855 12.237182453226044 1.7200000000000006 12.530000000000001 L 4.720000000000001 15.530000000000001 C 5.015509754484482 15.805358860429124 5.476009721994743 15.797233875917357 5.76162179895605 15.51162179895605 C 6.047233875917356 15.226009721994743 6.0553588604291235 14.765509754484482 5.780000000000001 14.47 L 4.060000000000001 12.75 L 15 12.75 C 15.414213562373096 12.75 15.75 12.414213562373096 15.75 12 C 15.75 11.585786437626904 15.414213562373096 11.25 15 11.25 L 4.06 11.25 L 5.779999999999999 9.53 C 6.0724533780575145 9.237182453226042 6.0724533780575145 8.762817546773956 5.779999999999999 8.469999999999999 Z" stroke-linecap="round" />
</g>
</svg>