<?xml version="1.0" encoding="UTF-8" standalone="no" ?>
<!DOCTYPE svg PUBLIC "-//W3C//DTD SVG 1.1//EN" "http://www.w3.org/Graphics/SVG/1.1/DTD/svg11.dtd">
<svg xmlns="http://www.w3.org/2000/svg" xmlns:xlink="http://www.w3.org/1999/xlink" version="1.1" width="1080" height="1080" viewBox="0 0 1080 1080" xml:space="preserve">
<desc>Created with Fabric.js 5.2.4</desc>
<defs>
</defs>
<rect x="0" y="0" width="100%" height="100%" fill="transparent"></rect>
<g transform="matrix(1 0 0 1 540 540)" id="ce8381c5-3e20-489a-8db1-733ffbc23ff5"  >
<rect style="stroke: none; stroke-width: 1; stroke-dasharray: none; stroke-linecap: butt; stroke-dashoffset: 0; stroke-linejoin: miter; stroke-miterlimit: 4; fill: rgb(255,255,255); fill-rule: nonzero; opacity: 1; visibility: hidden;" vector-effect="non-scaling-stroke"  x="-540" y="-540" rx="0" ry="0" width="1080" height="1080" />
</g>
<g transform="matrix(1 0 0 1 540 540)" id="e1187f24-e4db-4344-98d6-874f517c718b"  >
</g>
<g transform="matrix(45 0 0 45 540 540)"  >
<path style="stroke: none; stroke-width: 1; stroke-dasharray: none; stroke-linecap: butt; stroke-dashoffset: 0; stroke-linejoin: miter; stroke-miterlimit: 4; fill: rgb(0,0,0); fill-rule: evenodd; opacity: 1;"  transform=" translate(-12.01, -12.01)" d="M 10.5 3.75 C 6.772077938642145 3.75 3.75 6.772077938642145 3.75 10.5 C 3.75 14.227922061357855 6.772077938642145 17.25 10.5 17.25 C 14.227922061357855 17.25 17.25 14.227922061357855 17.25 10.5 C 17.25 6.772077938642145 14.227922061357855 3.75 10.5 3.75 Z M 2.25 10.5 C 2.250480706110142 6.859002021995775 4.637742883629251 3.6488407615767073 8.124545730316914 2.6004742153534792 C 11.611348577004579 1.552107669130251 15.373113817723333 2.91345931210455 17.381451880559826 5.950471780348858 C 19.38978994339632 8.987484248593166 19.169758020121574 12.981948164420746 16.84 15.78 L 21.53 20.470000000000002 C 21.730653177612055 20.656970580463984 21.81324918150754 20.93855554215896 21.745385541874285 21.204288908638556 C 21.67752190224103 21.470022275118154 21.470022275118158 21.67752190224103 21.20428890863856 21.745385541874285 C 20.93855554215896 21.81324918150754 20.656970580463987 21.730653177612055 20.470000000000002 21.53 L 15.780000000000001 16.84 C 13.320468889635318 18.888609238036107 9.897921310897907 19.329615581994894 6.999410735175415 17.971407374302313 C 4.100900159452923 16.613199166609736 2.2496480712562192 13.700951884856252 2.25 10.500000000000004 Z" stroke-linecap="round" />
</g>
</svg>