<?xml version="1.0" encoding="UTF-8" standalone="no" ?>
<!DOCTYPE svg PUBLIC "-//W3C//DTD SVG 1.1//EN" "http://www.w3.org/Graphics/SVG/1.1/DTD/svg11.dtd">
<svg xmlns="http://www.w3.org/2000/svg" xmlns:xlink="http://www.w3.org/1999/xlink" version="1.1" width="1080" height="1080" viewBox="0 0 1080 1080" xml:space="preserve">
<desc>Created with Fabric.js 5.2.4</desc>
<defs>
</defs>
<g transform="matrix(1 0 0 1 540 540)" id="2357d2ff-663d-43a6-933a-c0907d60e954"  >
<rect style="stroke: none; stroke-width: 1; stroke-dasharray: none; stroke-linecap: butt; stroke-dashoffset: 0; stroke-linejoin: miter; stroke-miterlimit: 4; fill: rgb(255,255,255); fill-rule: nonzero; opacity: 1; visibility: hidden;" vector-effect="non-scaling-stroke"  x="-540" y="-540" rx="0" ry="0" width="1080" height="1080" />
</g>
<g transform="matrix(1 0 0 1 540 540)" id="774346bb-7f18-4ee0-a454-88ac46583ced"  >
</g>
<g transform="matrix(45 0 0 45 540 540)"  >
<path style="stroke: rgb(0,0,0); stroke-width: 1.5; stroke-dasharray: none; stroke-linecap: round; stroke-dashoffset: 0; stroke-linejoin: round; stroke-miterlimit: 4; fill: none; fill-rule: nonzero; opacity: 1;"  transform=" translate(-12, -12)" d="M 15 19.128 C 15.852974383266861 19.375656289572223 16.736800634174916 19.500907095415194 17.624999999999996 19.5 C 19.05340280430517 19.502066175487833 20.463237218434852 19.17637766244453 21.746000000000006 18.548000000000002 C 21.82391954724695 16.706406920902047 20.670604218977076 15.03662589494835 18.92070212839865 14.457506565091451 C 17.17080003782022 13.878387235234554 15.249068145340692 14.53050030402268 14.213000000000001 16.055000000000003 M 15 19.128 L 15 19.125 C 15 18.012 14.715 16.965 14.214 16.055 M 15 19.128 L 15 19.234 C 13.075479700360297 20.393094530558532 10.870611703731164 21.00379040289966 8.623999999999999 21 C 6.293000000000001 21 4.112000000000001 20.355 2.250000000000001 19.234 L 2.249000000000001 19.125 C 2.247421552441535 16.213171641696356 4.219036251225452 13.670335696480251 7.03948864564936 12.946598748061545 C 9.859941040073268 12.222861799642839 12.812333055651019 13.50218214697443 14.213 16.055 M 12 6.375 C 12 8.238961030678928 10.488961030678928 9.75 8.625 9.75 C 6.761038969321072 9.75 5.25 8.238961030678928 5.25 6.375 C 5.25 4.511038969321072 6.761038969321072 3 8.625 3 C 10.488961030678928 3 12 4.5110389693210715 12 6.374999999999999 Z M 20.25 8.625 C 20.25 10.074747468305834 19.074747468305834 11.25 17.625 11.25 C 16.175252531694166 11.25 15 10.074747468305834 15 8.625 C 15 7.175252531694167 16.175252531694166 6 17.625 6 C 19.074747468305834 6 20.25 7.175252531694166 20.25 8.625 Z" stroke-linecap="round" />
</g>
</svg>